<svg width="86" height="86" viewBox="0 0 86 86" fill="none" xmlns="http://www.w3.org/2000/svg">
<rect width="86" height="86" fill="#1E1E1E"/>
<g id="IICF Home / Desktop 1440">
<rect width="1440" height="9127" transform="translate(-950.5 -6335.13)" fill="#F9F0E1"/>
<g id="Page Body">
<g id="Experience">
<rect width="1440" height="1302" transform="translate(-950.5 -382.126)" fill="#8B1821"/>
<g id="Experience Content">
<g id="Section Heading">
<g id="Illustration 24">
<path id="Vector" d="M67.8405 59.506C66.7179 59.4178 66.0142 59.3912 65.3192 59.2981C64.1291 59.1236 62.9472 58.8256 61.7485 58.7366C60.7211 58.6684 59.7741 59.0004 59.3682 60.1367C58.999 61.1593 59.389 62.0571 60.5278 62.7633C60.7767 62.9181 61.0631 63.0353 61.3397 63.1238C64.2867 64.0208 67.2061 65.003 70.1897 65.7672C73.5164 66.6113 74.9695 65.6194 75.9506 62.2935C76.8769 59.1761 77.2514 56.0148 77.0647 52.8188C76.9831 51.4206 76.9288 49.9181 75.3599 49.0075C72.5107 50.9919 73.7354 54.3607 72.4245 57.0746C71.9451 56.6892 71.4768 56.4655 71.2351 56.0922C66.7964 49.1144 61.2179 43.1033 55.0754 37.6755C49.4991 32.7386 43.5192 28.2822 36.3148 25.7422C26.429 22.251 16.4883 22.4666 6.47076 26.1224C5.61864 26.4363 4.80618 26.9028 4.01275 27.3695C3.22872 27.8268 2.69353 28.4389 3.18247 29.6989C4.06506 29.5659 5.00473 29.4335 5.93434 29.2535C9.29217 28.5864 12.6379 27.6816 16.0268 27.2525C26.5638 25.9217 35.9293 28.7608 44.3117 34.7547C49.1687 38.2199 53.8384 41.9492 57.8127 46.4125C60.8727 49.8487 63.6693 53.5292 66.5507 57.1441C66.994 57.7002 67.2488 58.4064 67.8403 59.487L67.8405 59.506Z" fill="#78BF30"/>
</g>
</g>
</g>
</g>
</g>
</g>
</svg>
