<svg width="128" height="176" viewBox="0 0 128 176" fill="none" xmlns="http://www.w3.org/2000/svg">
<rect width="128" height="176" fill="#1E1E1E"/>
<g id="IICF Home / Desktop 1440">
<rect width="1440" height="9127" transform="translate(-1136.75 -6697.51)" fill="#F9F0E1"/>
<g id="Page Body">
<g id="Experience">
<rect width="1440" height="1302" transform="translate(-1136.75 -744.506)" fill="#8B1821"/>
<g id="Experience Content">
<g id="Experience Grid">
<g id="Column / Right">
<g id="Photo Block">
<rect x="-88.2499" y="-77.5059" width="304.75" height="435" rx="16" fill="#E9EBDF"/>
<g id="Group">
<path id="Vector" d="M109.739 83.5887H116.839C119.11 83.5887 121.043 81.9906 121.401 79.8186L127.942 39.929C128.386 37.211 126.222 34.752 123.38 34.752H43.3535L45.5049 47.8795H115.593L109.739 83.5887Z" fill="#1E7A2D"/>
<path id="Vector_2" d="M109.739 83.5885H104.329C101.487 83.5885 99.364 81.0577 99.9481 78.3596C100.384 76.351 102.211 74.9121 104.329 74.9121H118.509L109.739 83.5885Z" fill="#1E7A2D"/>
<path id="Vector_3" d="M1.52588e-05 39.6578L23.5629 69.624L13.1101 34.752H1.52588e-05V39.6578Z" fill="#1E7A2D"/>
<path id="Vector_4" d="M30.8848 102.145H82.6383V120.545H30.8848V102.145Z" fill="#1E7A2D"/>
<path id="Vector_5" d="M100.418 175.288H13.1106L25.6119 119.082H87.9169L100.418 175.288Z" fill="#72CFD6"/>
<path id="Vector_6" d="M13.1106 34.752H100.418L87.9169 111.012H25.6119L13.1106 34.752Z" fill="#72CFD6"/>
<path id="Vector_7" d="M62.2643 14.6494H56.7644H51.2645L13.1106 34.7518H56.7644H100.418L62.2643 14.6494Z" fill="#FFFDF5"/>
<path id="Vector_8" d="M72.6183 175.288H40.9105L45.4519 119.082H68.0768L72.6183 175.288Z" fill="#FFFDF5"/>
<path id="Vector_9" d="M40.9105 34.752H72.6183L68.0768 111.012H45.4519L40.9105 34.752Z" fill="#FFFDF5"/>
<path id="Vector_10" d="M58.7636 14.6494H56.7644H54.7651L40.9105 34.7518H56.7644H72.6183L58.7636 14.6494Z" fill="#1E7A2D"/>
<path id="Vector_11" d="M51.2638 14.6501H62.2637L64.666 3.39963C65.0404 1.64607 63.6582 0 61.8112 0H51.7246C49.8776 0 48.4954 1.64607 48.8697 3.39963L51.2721 14.6501H51.2638Z" fill="#72CFD6"/>
</g>
</g>
</g>
</g>
</g>
</g>
</g>
</g>
</svg>
