<svg width="1440" height="254" viewBox="0 0 1440 254" fill="none" xmlns="http://www.w3.org/2000/svg">

<g id="IICF Home / Desktop 1440">

<g id="Page Body" clip-path="url(#clip0_61_187)">
<g id="Divider / Bunting 2">
<g id="Group">
<path id="Vector" d="M288.638 231.051L279.865 81.656L131.619 92.8233L140.391 242.219L288.638 231.051Z" fill="#F7C408"/>
<path id="Vector_2" d="M141.154 241.344L132.381 91.9494L-15.9576 103.124L-7.18509 252.518L141.154 241.344Z" fill="#1E7A2D"/>
<path id="Vector_3" d="M240.035 220.652L202.47 159.539L232.548 93.3384L270.103 154.452L240.035 220.652Z" fill="#CEA4CC"/>
<path id="Vector_4" d="M173.018 225.332L135.886 164.185L165.53 98.0151L203.087 159.13L173.018 225.332Z" fill="#72CFD6"/>
<path id="Vector_5" d="M106.001 230.005L68.4384 168.894L98.5151 102.694L136.503 163.774L106.001 230.005Z" fill="#CEA4CC"/>
<path id="Vector_6" d="M38.9774 234.682L1.42273 173.569L31.4906 107.368L69.0556 168.481L38.9774 234.682Z" fill="#72CFD6"/>
<path id="Vector_7" d="M259.829 161.695C262.585 161.519 264.693 159.141 264.537 156.384C264.382 153.627 262.022 151.534 259.266 151.71L259.548 156.702L259.829 161.695ZM8.02102 167.728C5.26535 167.903 3.15751 170.281 3.31303 173.038C3.46855 175.795 5.82853 177.888 8.5842 177.712L8.30261 172.72L8.02102 167.728ZM259.548 156.702L259.266 151.71L8.02102 167.728L8.30261 172.72L8.5842 177.712L259.829 161.695L259.548 156.702Z" fill="#FFFEF0"/>
</g>
<g id="Group_2">
<path id="Vector_8" d="M579.036 210.794L570.263 61.3986L422.017 72.566L430.789 221.961L579.036 210.794Z" fill="#F7C408"/>
<path id="Vector_9" d="M431.551 221.077L422.779 71.6828L274.44 82.8571L283.212 232.252L431.551 221.077Z" fill="#1E7A2D"/>
<path id="Vector_10" d="M530.43 200.388L492.876 139.274L522.944 73.0736L560.509 134.186L530.43 200.388Z" fill="#CEA4CC"/>
<path id="Vector_11" d="M463.412 205.066L426.281 143.92L455.925 77.75L493.492 138.864L463.412 205.066Z" fill="#72CFD6"/>
<path id="Vector_12" d="M396.396 209.741L358.833 148.629L388.91 82.4293L426.898 143.509L396.396 209.741Z" fill="#CEA4CC"/>
<path id="Vector_13" d="M329.383 214.417L291.818 153.304L321.896 87.1031L359.451 148.217L329.383 214.417Z" fill="#72CFD6"/>
<path id="Vector_14" d="M550.224 141.43C552.98 141.254 555.088 138.877 554.932 136.12C554.777 133.362 552.417 131.27 549.661 131.445L549.943 136.438L550.224 141.43ZM298.416 147.463C295.66 147.639 293.553 150.016 293.708 152.773C293.864 155.531 296.224 157.623 298.979 157.448L298.698 152.455L298.416 147.463ZM549.943 136.438L549.661 131.445L298.416 147.463L298.698 152.455L298.979 157.448L550.224 141.43L549.943 136.438Z" fill="#FFFEF0"/>
</g>
<g id="Group_3">
<path id="Vector_15" d="M869.433 190.528L860.66 41.133L712.414 52.3004L721.186 201.696L869.433 190.528Z" fill="#F7C408"/>
<path id="Vector_16" d="M721.949 200.821L713.176 51.4265L564.837 62.6008L573.61 211.995L721.949 200.821Z" fill="#1E7A2D"/>
<path id="Vector_17" d="M820.824 180.124L783.27 119.011L813.338 52.8104L850.903 113.923L820.824 180.124Z" fill="#CEA4CC"/>
<path id="Vector_18" d="M753.807 184.803L716.676 123.656L746.32 57.4868L783.887 118.601L753.807 184.803Z" fill="#72CFD6"/>
<path id="Vector_19" d="M686.791 189.477L649.238 128.365L679.305 62.1659L717.293 123.246L686.791 189.477Z" fill="#CEA4CC"/>
<path id="Vector_20" d="M619.777 194.154L582.212 133.041L612.29 66.8399L649.855 127.953L619.777 194.154Z" fill="#72CFD6"/>
<path id="Vector_21" d="M840.629 121.165C843.385 120.989 845.493 118.612 845.337 115.855C845.181 113.098 842.822 111.005 840.066 111.181L840.347 116.173L840.629 121.165ZM588.811 127.199C586.055 127.375 583.947 129.752 584.103 132.509C584.258 135.266 586.618 137.359 589.374 137.183L589.092 132.191L588.811 127.199ZM840.347 116.173L840.066 111.181L588.811 127.199L589.092 132.191L589.374 137.183L840.629 121.165L840.347 116.173Z" fill="#FFFEF0"/>
</g>
<g id="Group_4">
<path id="Vector_22" d="M1159.83 170.262L1151.06 20.8664L1002.81 32.0338L1011.58 181.429L1159.83 170.262Z" fill="#F7C408"/>
<path id="Vector_23" d="M1012.35 180.555L1003.57 31.1599L855.234 42.3342L864.007 191.729L1012.35 180.555Z" fill="#1E7A2D"/>
<path id="Vector_24" d="M1111.23 159.859L1073.66 98.7465L1103.74 32.5454L1141.3 93.6591L1111.23 159.859Z" fill="#CEA4CC"/>
<path id="Divider / Bunting 1" d="M1044.2 164.539L1007.08 103.391L1036.71 37.2225L1074.28 98.3366L1044.2 164.539Z" fill="#72CFD6"/>
<path id="Vector_25" d="M977.186 169.213L939.633 108.101L969.699 41.9017L1007.7 102.981L977.186 169.213Z" fill="#CEA4CC"/>
<path id="Vector_26" d="M910.172 173.89L872.617 112.776L902.685 46.576L940.25 107.689L910.172 173.89Z" fill="#72CFD6"/>
<path id="Vector_27" d="M1131.02 100.902C1133.78 100.726 1135.89 98.3486 1135.73 95.5915C1135.58 92.8343 1133.22 90.7417 1130.46 90.9173L1130.74 95.9096L1131.02 100.902ZM879.205 106.936C876.45 107.111 874.342 109.489 874.497 112.246C874.653 115.003 877.013 117.096 879.769 116.92L879.487 111.928L879.205 106.936ZM1130.74 95.9096L1130.46 90.9173L879.205 106.936L879.487 111.928L879.769 116.92L1131.02 100.902L1130.74 95.9096Z" fill="#FFFEF0"/>
</g>
<g id="Group_5">
<path id="Vector_28" d="M1450.23 149.994L1441.45 0.598837L1293.21 11.7662L1301.98 161.161L1450.23 149.994Z" fill="#F7C408"/>
<path id="Vector_29" d="M1302.74 160.288L1293.97 10.8933L1145.63 22.0676L1154.4 171.462L1302.74 160.288Z" fill="#1E7A2D"/>
<path id="Vector_30" d="M1401.62 139.595L1364.06 78.4819L1394.14 12.2808L1431.69 73.3944L1401.62 139.595Z" fill="#CEA4CC"/>
<path id="Vector_31" d="M1334.61 144.274L1297.48 83.1272L1327.12 16.9575L1364.68 78.0724L1334.61 144.274Z" fill="#72CFD6"/>
<path id="Vector_32" d="M1267.59 148.948L1230.03 87.8361L1260.11 21.6363L1298.09 82.716L1267.59 148.948Z" fill="#CEA4CC"/>
<path id="Vector_33" d="M1200.57 153.625L1163.01 92.5117L1193.08 26.3114L1230.65 87.4242L1200.57 153.625Z" fill="#72CFD6"/>
<path id="Vector_34" d="M1421.42 80.6374C1424.18 80.4618 1426.28 78.0842 1426.13 75.3271C1425.97 72.5699 1423.61 70.4772 1420.86 70.6529L1421.14 75.6452L1421.42 80.6374ZM1169.61 86.6705C1166.86 86.8462 1164.75 89.2238 1164.9 91.9809C1165.06 94.7381 1167.42 96.8307 1170.17 96.6551L1169.89 91.6628L1169.61 86.6705ZM1421.14 75.6452L1420.86 70.6529L1169.61 86.6705L1169.89 91.6628L1170.17 96.6551L1421.42 80.6374L1421.14 75.6452Z" fill="#FFFEF0"/>
</g>
</g>
</g>
</g>
<defs>
<clipPath id="clip0_61_187">
<rect width="1440" height="9127" fill="white" transform="translate(0 -5817.09)"/>
</clipPath>
</defs>
</svg>
